<svg xmlns="http://www.w3.org/2000/svg" viewBox="0 0 20.11 32.37"><defs><style>.cls-1,.cls-2{fill:#df3c00;stroke-linecap:round;stroke-linejoin:round;stroke-width:0.7px;}.cls-1{stroke:#ffada8;}.cls-2{stroke:#e3eeff;}.cls-3{fill:#e3eeff;}.cls-4{fill:#0d1b00;}.cls-5{fill:#090400;}.cls-6{fill:#007196;}</style></defs><title>Asset 2</title><g id="Layer_2" data-name="Layer 2"><g id="Layer_1-2" data-name="Layer 1"><g id="Icons"><line class="cls-1" x1="2.54" y1="16.22" x2="2.56" y2="16.24"/><path class="cls-2" d="M18.54,14.77,10.78,26.4a.88.88,0,0,1-1.45,0L1.57,14.77h0a9.56,9.56,0,0,1-1.22-4.7,9.71,9.71,0,1,1,19.41,0,9.56,9.56,0,0,1-1.22,4.7Z"/><ellipse class="cls-3" cx="10.06" cy="10.4" rx="7.97" ry="8.26"/><ellipse class="cls-2" cx="10.38" cy="31.17" rx="2.97" ry="0.86"/></g><g id="icon"><path id="wrench" class="cls-4" d="M16.06,5.27,14.65,6.72a.82.82,0,0,1-1.22,0,.89.89,0,0,1,0-1.25L14.84,4a2.6,2.6,0,0,0-3.07.53,2.8,2.8,0,0,0-.52,3.16l-5.33,5.5a1.61,1.61,0,0,0-1.5.44,1.69,1.69,0,0,0,0,2.33,1.57,1.57,0,0,0,2.26,0,1.64,1.64,0,0,0,.43-1.54L12.45,9a2.63,2.63,0,0,0,3.07-.53A2.79,2.79,0,0,0,16.06,5.27ZM6.13,15.36a.71.71,0,0,1-1,0,.75.75,0,0,1,0-1.07.72.72,0,0,1,1,0A.77.77,0,0,1,6.13,15.36Z"/><g id="screwdriver"><polygon id="base" class="cls-5" points="15.52 14.81 8.07 7.16 8.24 6.99 7.79 5.63 4.96 4.15 3.95 5.19 5.47 8.2 6.71 8.57 6.88 8.39 14.31 16.07 15.52 14.81"/><path id="line" class="cls-6" d="M15.48,16h0a1.26,1.26,0,0,1-1.81,0L11,13.21a1.37,1.37,0,0,1,0-1.87h0a1.29,1.29,0,0,1,1.82,0l2.71,2.82A1.36,1.36,0,0,1,15.48,16Z"/></g></g></g></g></svg>